<svg width="3070" height="2611" viewBox="0 0 3070 2611" fill="none" xmlns="http://www.w3.org/2000/svg">
<path d="M1717 879C2031.5 952.5 2063.34 628.99 2036.5 487C2009 341.5 1958.2 202.5 1731.5 202.5C965 202.5 685.916 587.5 612 1033.5C479 1836 780 2170.33 976 2340C1265.5 2566 1529 2404.5 1529 2205.5C1529 1973.5 1307.68 1844.36 1153 1843.5C998.322 1842.64 847.589 1961.25 763 1820C548.613 1462 778.5 1288.89 941.499 1255C1521 1134.5 1582 1565.5 1582 1787C1582 2223.5 1716 2469.37 1964 2416.5C2069.71 2393.96 2241.62 2292.18 2353.5 2150C2420.78 2064.5 2476.8 1931 2514 1787C2567.09 1581.5 2607.9 1343.39 2517.03 1087.5C2464.59 939.821 2372.5 789 2164 789C1937.87 798.359 1837.52 966.367 1817.5 1140C1797.95 1309.59 1854.5 1464.95 1913 1546.5C2094.5 1799.5 2292.5 1928 2021.5 2205.5C1821.79 2410 1680 2356.5 1680 2096C1680 1806.5 1670.24 1888 1690 1683.5C1728.5 1285.02 1883 1033.5 1648 873.5C1413 713.5 1241.47 895 1167.5 1033.5C1093 1173 979.888 1247.69 946.499 1173C928.841 1133.5 926.612 1060.84 946.499 1033.5C970.5 1000.5 1073.69 943.514 1139 902C1151.5 894.054 1219 853.5 1191 796.5C1151 733.5 1041 760.056 985.5 808C910 873.22 885.499 994.694 885.499 1095C885.499 1250 763 1255 763 1095C763 760.5 913.5 573.16 1237.5 573.16C1521 573.16 1506.97 829.914 1717 879Z" fill="black"/>
<path d="M2318.83 727.775C2219.04 657.72 2282.87 448.921 2317.71 342.339C2346.53 254.167 2384.64 43.7233 2600.45 191.27C2623.01 204.582 2789.1 321.925 2819.58 348.79C2939.58 454.526 2795.15 550.314 2757.62 581.524C2674.99 650.243 2450.65 820.314 2318.83 727.775Z" fill="black"/>
</svg>
